<svg class="svg-icon" style="width: 1em;height: 1em;vertical-align: middle;fill: currentColor;overflow: hidden;" viewBox="0 0 1024 1024" version="1.1" xmlns="http://www.w3.org/2000/svg"><path d="M990.608696 144.695652v734.608696c0 24.486957-20.034783 44.521739-44.521739 44.521739H366.191304c-24.486957 0-43.408696-20.034783-43.408695-44.521739V675.617391c0-24.486957 20.034783-44.521739 44.521739-44.521739s44.521739 20.034783 44.521739 44.521739V834.782609h489.73913V189.217391H411.826087v159.165218c0 24.486957-20.034783 44.521739-44.521739 44.521739s-44.521739-20.034783-44.521739-44.521739V144.695652c0-24.486957 18.921739-44.521739 43.408695-44.521739H946.086957c24.486957 0 44.521739 20.034783 44.521739 44.521739zM517.565217 655.582609c-17.808696 17.808696-16.695652 45.634783 0 63.443478 8.904348 8.904348 20.034783 13.356522 31.165218 13.356522 11.130435 0 23.373913-4.452174 31.165217-13.356522l174.747826-175.86087c16.695652-17.808696 16.695652-45.634783 0-62.330434l-173.634782-178.086957c-17.808696-17.808696-45.634783-17.808696-63.443479 0-17.808696 17.808696-17.808696 45.634783 0 63.443478l99.06087 100.173913L77.913043 467.478261c-24.486957 0-44.521739 20.034783-44.521739 44.521739s20.034783 44.521739 44.521739 44.521739l538.713044-1.113043-99.06087 100.173913z"  /></svg>